<?xml version="1.0" standalone="no"?>
<!DOCTYPE svg PUBLIC "-//W3C//DTD SVG 20010904//EN"
 "http://www.w3.org/TR/2001/REC-SVG-20010904/DTD/svg10.dtd">
<svg version="1.0" xmlns="http://www.w3.org/2000/svg"
 width="500.000000pt" height="500.000000pt" viewBox="0 0 500.000000 500.000000"
 preserveAspectRatio="xMidYMid meet">

<g transform="translate(0.000000,500.000000) scale(0.100000,-0.100000)"
fill="#000000" stroke="none">
<path d="M2925 3833 c-215 -8 -550 -62 -640 -102 -54 -24 -139 -110 -233 -236
-41 -55 -76 -102 -79 -105 -2 -3 -9 3 -14 13 -14 23 -55 21 -73 -4 -16 -24
-35 -26 -472 -53 -248 -16 -373 -35 -435 -66 -51 -26 -106 -92 -119 -142 -6
-24 -16 -56 -22 -73 -6 -16 -19 -54 -30 -84 -10 -29 -23 -82 -27 -117 -4 -36
-15 -71 -24 -82 -23 -25 -21 -58 3 -75 12 -8 34 -35 50 -60 16 -25 47 -58 69
-72 24 -17 54 -51 78 -92 76 -131 178 -192 335 -201 128 -7 212 21 284 93 29
29 56 65 60 79 l6 26 118 0 c69 0 121 4 125 10 4 6 -34 10 -107 10 -569 1
-758 23 -887 104 -37 24 -81 77 -81 99 0 4 213 7 473 7 637 0 1043 15 1403 51
l112 12 32 101 c58 180 130 291 207 317 68 22 143 -4 185 -65 20 -28 17 -27
-24 10 -25 23 -59 45 -76 49 -49 10 -108 -11 -152 -57 -46 -48 -71 -97 -115
-228 -76 -224 -134 -281 -341 -334 -105 -26 -441 -66 -567 -66 -11 0 -15 -4
-11 -11 12 -20 380 5 535 37 23 4 27 0 37 -33 28 -94 109 -180 218 -230 47
-21 78 -28 150 -31 102 -5 175 11 257 56 60 32 139 117 163 175 l18 43 55 -4
c33 -2 118 7 205 22 198 34 210 34 257 -8 61 -56 173 -80 259 -56 77 21 141
127 159 263 15 108 14 272 -2 334 -26 98 -148 233 -211 233 -9 0 -57 55 -107
121 -218 290 -351 382 -584 408 -102 11 -316 18 -420 14z m430 -37 c226 -35
353 -125 554 -396 l71 -95 -66 -8 c-39 -4 -72 -3 -82 3 -14 8 -12 9 10 10 53
0 74 52 41 100 -32 48 -106 130 -115 130 -12 0 -4 -66 18 -154 15 -57 12 -85
-6 -56 -5 8 -19 68 -31 133 -21 112 -24 119 -58 148 -39 32 -185 109 -207 109
-7 0 -21 -12 -31 -27 -14 -21 -18 -54 -21 -163 l-4 -137 49 -52 c62 -65 104
-76 146 -37 l28 26 71 -15 c113 -23 164 -58 183 -125 7 -23 7 -23 -9 -7 -21
21 -30 21 -50 2 -8 -8 -19 -15 -25 -15 -17 0 -13 -11 11 -37 26 -27 53 -30 68
-5 8 13 10 -10 7 -91 -3 -60 -8 -111 -11 -115 -4 -3 -100 -8 -215 -10 l-209
-4 -7 153 c-8 182 -18 245 -45 280 -17 24 -18 34 -9 93 6 37 9 116 7 176 -5
172 -20 180 -318 180 -211 -1 -301 -7 -540 -40 -191 -26 -247 -41 -301 -83
-50 -38 -224 -257 -212 -267 4 -4 121 -1 258 7 352 19 705 19 889 -1 136 -15
151 -15 165 -1 13 13 16 43 16 175 0 106 3 156 10 149 13 -13 18 -239 8 -299
l-9 -45 -69 0 c-39 0 -128 6 -198 13 -174 16 -466 15 -788 -4 -148 -8 -283
-14 -300 -12 l-31 3 65 90 c36 50 94 120 130 157 59 60 73 69 145 92 79 25
262 58 417 75 132 14 499 13 600 -3z m-545 -76 c33 0 55 -23 45 -47 -6 -16 -8
-16 -16 5 -7 18 -16 22 -54 22 -43 0 -44 1 -27 18 9 10 19 14 20 10 2 -4 16
-8 32 -8z m825 -89 c32 -20 65 -47 71 -61 12 -24 55 -232 49 -238 -1 -2 -26 0
-54 4 -47 6 -50 8 -45 30 8 32 -43 84 -83 84 -24 1 -26 2 -10 11 10 6 45 9 78
7 32 -1 59 -2 59 0 0 1 -9 21 -21 43 -28 55 -93 125 -146 156 -24 14 -43 27
-43 29 0 8 88 -31 145 -65z m-1217 -63 c60 -15 62 -28 5 -28 -43 0 -105 -11
-156 -26 -17 -5 -17 -3 -7 18 33 62 46 65 158 36z m-190 -37 c-19 -28 -44 -53
-62 -60 -26 -9 -23 -3 29 49 33 33 61 60 62 60 2 0 -11 -22 -29 -49z m1132 6
l0 -43 -137 0 c-101 1 -154 -4 -198 -16 -57 -17 -61 -17 -84 0 -13 10 -24 22
-23 27 1 16 170 54 282 63 176 15 160 18 160 -31z m491 -111 c16 -21 29 -51
29 -65 l-1 -26 -27 34 -28 33 4 -38 c7 -63 -14 -28 -32 53 -25 114 -24 114 55
9z m-298 -18 c-11 -45 -38 -62 -50 -33 -6 17 23 55 43 55 8 0 10 -8 7 -22z
m-548 -18 l160 -10 33 -40 c34 -41 67 -51 90 -28 7 7 12 20 12 30 0 28 73 25
100 -4 31 -33 38 -77 45 -260 l5 -168 -40 0 c-35 0 -40 -3 -41 -22 0 -13 -7 2
-15 32 -22 82 -32 80 -18 -2 7 -40 14 -104 14 -143 1 -49 4 -64 10 -50 5 11 9
35 9 53 1 31 3 32 41 32 l40 0 0 -53 c0 -83 11 -89 146 -77 221 20 275 39 292
103 7 28 13 33 48 37 35 5 40 8 45 40 4 19 5 8 2 -25 -6 -82 -25 -123 -65
-139 -18 -8 -143 -25 -278 -39 l-245 -26 170 4 c230 7 343 20 375 43 14 10 33
34 42 53 21 40 22 37 7 -30 -7 -33 -19 -58 -35 -70 -28 -22 -160 -53 -324 -76
-63 -9 -146 -21 -184 -26 -48 -7 -77 -7 -93 0 -22 10 -23 16 -23 105 0 113
-25 341 -45 412 -39 135 -158 207 -268 161 -65 -28 -142 -136 -188 -267 -30
-86 -32 -87 -157 -89 -69 -1 -72 0 -62 18 16 30 12 59 -10 71 -12 7 -117 9
-297 8 l-277 -3 -43 -60 c-23 -33 -42 -64 -43 -69 0 -8 425 -2 715 10 77 4
138 4 135 0 -10 -9 -362 -35 -635 -46 -298 -12 -904 -14 -1172 -4 -138 5 -183
10 -183 20 0 9 22 11 93 7 l92 -5 40 63 c22 35 42 67 43 71 2 4 -53 8 -121 8
l-126 0 9 29 c4 16 12 37 18 46 8 16 10 16 23 -2 36 -51 107 -57 166 -14 104
75 140 192 82 265 -11 13 -16 27 -11 30 16 9 487 47 577 46 11 -1 -25 -15 -80
-34 -121 -39 -250 -97 -325 -143 -68 -43 -160 -131 -160 -154 0 -41 16 -43
338 -35 169 3 364 10 434 15 146 10 183 24 319 115 79 53 84 55 87 34 16 -120
115 -185 214 -140 92 42 148 127 148 224 0 61 -27 110 -70 128 -17 7 -30 16
-30 20 0 9 67 18 165 23 33 2 74 4 90 5 17 1 102 -3 190 -8z m-495 -12 c-101
-29 -176 -89 -200 -162 -8 -24 -32 -46 -103 -93 -167 -111 -150 -107 -510
-123 -287 -13 -537 -14 -550 -1 -23 23 108 135 240 204 102 53 289 113 449
142 104 19 172 25 292 26 86 1 204 5 262 9 153 10 161 10 120 -2z m748 -14
c23 -7 30 -38 11 -50 -12 -7 -60 25 -67 44 -4 13 20 15 56 6z m-704 -14 c7 0
21 -7 32 -15 17 -13 16 -14 -14 -4 -23 8 -45 8 -75 1 -23 -6 -43 -10 -44 -8
-7 7 63 35 75 31 8 -3 19 -5 26 -5z m-3 -40 c25 -14 49 -62 49 -100 0 -63 -45
-136 -102 -166 -44 -23 -77 -17 -114 20 -27 27 -34 42 -34 74 0 50 14 89 43
121 50 54 113 75 158 51z m-1454 -52 c11 -13 23 -36 27 -53 l7 -30 -20 33
c-12 18 -35 41 -53 52 -33 20 -33 20 -7 20 14 0 35 -10 46 -22z m2941 5 c73
-23 147 -93 98 -93 -36 0 -85 -94 -102 -195 -9 -56 -23 -79 -24 -40 0 17 -5
37 -10 45 -7 11 -10 5 -10 -22 0 -37 -1 -38 -34 -38 l-35 0 6 108 c7 128 1
167 -32 216 l-24 36 56 0 c31 0 81 -8 111 -17z m-2978 -23 c48 -25 30 -123
-35 -187 -46 -47 -85 -56 -117 -26 -46 41 0 170 73 206 40 19 54 21 79 7z
m3119 -100 c33 -17 53 -88 56 -200 l4 -105 -8 102 c-11 137 -38 183 -108 183
-21 0 -24 2 -13 15 14 17 43 19 69 5z m-1764 -115 l40 -14 -33 -1 c-25 0 -41
8 -63 31 -16 17 -29 36 -29 43 0 6 10 -2 23 -17 12 -15 40 -34 62 -42z m730
11 c46 -28 86 -79 111 -146 25 -64 26 -273 2 -351 -25 -79 -74 -148 -132 -183
-38 -24 -61 -31 -115 -33 l-66 -3 60 14 c84 20 108 30 150 67 108 95 137 311
65 501 -21 58 -83 132 -123 148 -12 5 -16 9 -8 9 8 1 33 -10 56 -23z m-72 -20
c105 -43 182 -243 157 -403 -24 -147 -99 -243 -190 -243 -35 0 -99 30 -121 56
-11 14 -6 13 28 -5 108 -54 207 3 248 144 47 163 -24 381 -144 445 -42 22 -26
27 22 6z m1091 -50 c9 -19 16 -42 16 -53 -1 -11 -7 -4 -16 17 -8 19 -22 42
-31 52 -14 16 -14 18 -1 18 9 0 23 -15 32 -34z m-1894 -46 c-20 -13 -133 -13
-125 0 3 6 36 10 73 10 47 0 63 -3 52 -10z m327 -5 c3 -9 2 -19 -2 -23 -4 -4
-10 -1 -12 6 -3 9 -38 12 -127 12 -110 0 -126 -2 -150 -21 -32 -25 -34 -14 -4
18 20 22 28 23 155 23 111 0 135 -3 140 -15z m-1713 -11 c9 -24 7 -54 -4 -54
-5 0 -10 8 -10 19 0 21 -16 37 -45 44 -12 3 -5 5 16 6 25 1 39 -4 43 -15z m83
-34 c-31 -48 -56 -64 -58 -37 -1 6 -3 29 -4 50 l-4 37 49 0 49 0 -32 -50z
m-122 20 c3 -5 -3 -10 -15 -10 -12 0 -18 5 -15 10 3 6 10 10 15 10 5 0 12 -4
15 -10z m1565 0 c0 -5 -13 -10 -29 -10 -16 0 -36 -3 -45 -6 -9 -3 -16 -1 -16
4 0 6 17 13 38 15 20 2 40 4 45 5 4 1 7 -2 7 -8z m125 0 c-44 -11 -67 -11 -60
0 3 6 25 9 48 9 40 -1 40 -2 12 -9z m-350 -10 l-20 -9 20 -1 c13 -1 15 -3 6
-7 -10 -4 -10 -7 -1 -13 6 -4 -11 -10 -40 -14 -29 -4 -55 -5 -58 -2 -2 3 3 17
12 31 13 20 24 25 59 24 33 0 38 -2 22 -9z m2002 -112 c-2 -24 -4 -5 -4 42 0
47 2 66 4 43 2 -24 2 -62 0 -85z m-317 33 c0 -58 -96 -89 -287 -94 l-108 -2
-3 52 -3 52 63 4 c35 2 125 4 201 5 128 2 137 1 137 -17z m301 -125 c-4 -6
-11 -27 -15 -47 -7 -37 -30 -78 -40 -68 -3 3 6 32 19 65 14 32 25 70 25 84 l1
25 10 -24 c5 -14 6 -28 0 -35z"/>
<path d="M3165 3238 c11 -6 38 -27 59 -47 l39 -36 -19 33 c-10 19 -31 40 -46
48 -32 16 -63 19 -33 2z"/>
<path d="M1602 3098 c-13 -18 -25 -58 -16 -58 12 0 74 50 74 61 0 13 -46 11
-58 -3z"/>
<path d="M855 2689 c-10 -14 38 -59 88 -83 101 -48 203 -66 425 -76 212 -10
549 -4 590 11 16 6 22 17 22 38 0 17 -10 41 -22 55 l-23 25 -412 3 c-279 1
-416 -1 -423 -8 -8 -8 -8 -19 0 -39 6 -15 9 -30 6 -32 -12 -13 -64 11 -78 35
-29 48 -56 66 -114 72 -30 3 -57 3 -59 -1z m118 -38 c11 -9 24 -25 30 -36 9
-17 8 -18 -5 -8 -8 7 -19 9 -23 5 -5 -4 -5 -2 -2 5 9 14 -19 43 -41 43 -13 0
-11 -5 8 -20 14 -11 20 -20 15 -20 -6 0 -26 14 -45 30 l-35 30 40 -6 c22 -4
48 -14 58 -23z m986 -77 c15 -15 -40 -19 -272 -22 -303 -4 -503 4 -510 21 -3
9 94 11 387 9 215 -2 393 -5 395 -8z"/>
<path d="M2027 2674 c-3 -4 10 -26 29 -50 l36 -43 61 6 c34 3 77 12 95 19 26
11 32 18 32 43 l0 31 -123 0 c-68 0 -126 -3 -130 -6z m233 -30 c0 -39 -164
-42 -188 -3 -11 18 -9 19 33 19 25 0 45 -4 45 -10 0 -5 9 -14 19 -20 25 -13
71 3 71 25 0 9 5 13 10 10 6 -3 10 -13 10 -21z m-127 -41 c-7 -2 -19 -2 -25 0
-7 3 -2 5 12 5 14 0 19 -2 13 -5z"/>
</g>
</svg>
